<?xml version="1.0" encoding="UTF-8"?>
<!-- Generated by Pixelmator Pro 3.6.10 -->
<svg width="18" height="23" viewBox="0 0 18 23" xmlns="http://www.w3.org/2000/svg">
    <g id="enabled">
        <g id="polyline">
            <path id="path4229" fill="#464646" stroke="none" visibility="hidden" d="M -243 17 L -243 23 L -237 23 L -237 17 L -243 17 Z M -239 21 L -241 21 L -241 19 L -239 19 L -239 21 Z"/>
            <path id="path4231" fill="#464646" stroke="none" visibility="hidden" d="M -225 -1 L -225 5 L -219 5 L -219 -1 L -225 -1 Z M -221 3 L -223 3 L -223 1 L -221 1 L -221 3 Z"/>
            <path id="path4233" fill="#464646" stroke="none" visibility="hidden" d="M -237.858002 20.145 L -240.143005 17.855 L -224.143005 1.857002 L -221.858002 4.141998 Z"/>
        </g>
        <g id="edit">
            <path id="path4240" fill="#464646" stroke="none" visibility="hidden" d="M 76 11.156 L 76 11.563 L 76 17.167 C 76 18.825001 74.656006 20.167 73 20.167 L 63 20.167 C 61.345001 20.167 60 18.825001 60 17.167 L 60 7.167 C 60 5.510002 61.345001 4.167 63 4.167 L 69.345001 4.167 L 72.535004 0.997002 L 63 0.997002 C 59.687012 0.997002 57 3.683998 57 6.997002 L 57 16.997002 C 57 20.310001 59.687012 22.997002 63 22.997002 L 73 22.997002 C 76.313995 22.997002 79 20.310001 79 16.997002 L 79 8.188 L 76 11.156"/>
            <path id="path4242" fill="#464646" stroke="none" visibility="hidden" d="M 77.720001 5.637001 L 68.828003 14.528999 L 66 14.528999 L 66 11.700001 L 74.890015 2.809998 Z"/>
            <path id="path4244" fill="#464646" stroke="none" visibility="hidden" d="M 79.713104 3.643311 L 76.885193 0.814388 L 79.714111 -2.013542 L 82.542053 0.815376 Z"/>
        </g>
        <g id="remove">
            <path id="path4247" fill="#464646" stroke="none" visibility="hidden" d="M 120 23 L 138 23 L 138 5 L 120 5 L 120 23 Z M 134 7 L 136 7 L 136 21 L 134 21 L 134 7 Z M 130 7 L 132 7 L 132 21 L 130 21 L 130 7 Z M 126 7 L 128 7 L 128 21 L 126 21 L 126 7 Z M 122 7 L 124 7 L 124 21 L 122 21 L 122 7 Z"/>
            <path id="path4249" fill="#464646" stroke="none" visibility="hidden" d="M 134 1 L 134 -3 L 124 -3 L 124 1 L 118 1 L 118 3 L 140 3 L 140 1 L 134 1 Z M 132 1 L 126 1 L 126 -1 L 132 -1 L 132 1 Z"/>
        </g>
    </g>
    <g id="disabled">
        <g id="edit-disabled">
            <g id="Gruppe">
                <path id="Pfad" fill="#464646" stroke="none" visibility="hidden" d="M 196 11.156 L 196 11.563 L 196 17.167 C 196 18.825001 194.656006 20.167 193 20.167 L 183 20.167 C 181.345001 20.167 180 18.825001 180 17.167 L 180 7.167 C 180 5.510002 181.345001 4.167 183 4.167 L 189.345001 4.167 L 192.535004 0.997002 L 183 0.997002 C 179.687012 0.997002 177 3.683998 177 6.997002 L 177 16.997002 C 177 20.310001 179.687012 22.997002 183 22.997002 L 193 22.997002 C 196.313995 22.997002 199 20.310001 199 16.997002 L 199 8.188 L 196 11.156"/>
                <path id="path1" fill="#464646" stroke="none" visibility="hidden" d="M 197.720001 5.637001 L 188.828003 14.528999 L 186 14.528999 L 186 11.700001 L 194.890015 2.809998 Z"/>
                <path id="path2" fill="#464646" stroke="none" visibility="hidden" d="M 199.713104 3.643311 L 196.885193 0.814388 L 199.714111 -2.013542 L 202.542053 0.815376 Z"/>
            </g>
        </g>
        <g id="remove-disabled">
            <g id="g1">
                <path id="path3" fill="#464646" stroke="none" visibility="hidden" d="M 240 23 L 258 23 L 258 5 L 240 5 L 240 23 Z M 254 7 L 256 7 L 256 21 L 254 21 L 254 7 Z M 250 7 L 252 7 L 252 21 L 250 21 L 250 7 Z M 246 7 L 248 7 L 248 21 L 246 21 L 246 7 Z M 242 7 L 244 7 L 244 21 L 242 21 L 242 7 Z"/>
                <path id="path4" fill="#464646" stroke="none" visibility="hidden" d="M 254 1 L 254 -3 L 244 -3 L 244 1 L 238 1 L 238 3 L 260 3 L 260 1 L 254 1 Z M 252 1 L 246 1 L 246 -1 L 252 -1 L 252 1 Z"/>
            </g>
        </g>
    </g>
    <path id="circle-3" fill="none" stroke="#464646" stroke-width="2" visibility="hidden" d="M 320.657227 11 C 320.657227 17.077999 315.731262 22 309.657227 22 C 303.583252 22 298.657227 17.077999 298.657227 11 C 298.657227 4.926003 303.583252 0 309.657227 0 C 315.731262 0 320.657227 4.926003 320.657227 11 Z"/>
    <path id="polygon" fill="#464646" stroke="none" visibility="hidden" d="M -161 5.565002 L -163.096008 20.395 L -177.929993 23 L -185 9.773001 L -174.537003 -1 Z"/>
    <path id="rectangle" fill="#464646" stroke="none" visibility="hidden" d="M -121 1 L -101 1 L -101 21 L -121 21 Z"/>
    <path id="circle" fill="#464646" stroke="none" visibility="hidden" d="M -40 11 C -40 17.077999 -44.925995 22 -51 22 C -57.074005 22 -62 17.077999 -62 11 C -62 4.926003 -57.074005 0 -51 0 C -44.925995 0 -40 4.926003 -40 11 Z"/>
    <path id="marker" fill="#464646" stroke="none" d="M 9 0 C 4.028992 0 0 4.028999 0 9 C 0 13.971001 5.001007 21 9 23 C 13.001007 21 18 13.971001 18 9 C 18 4.028999 13.971008 0 9 0 Z M 9 12.5 C 6.515991 12.5 4.5 10.486 4.5 8 C 4.5 5.515999 6.515991 3.5 9 3.5 C 11.484985 3.5 13.5 5.515999 13.5 8 C 13.5 10.486 11.484985 12.5 9 12.5 Z"/>
</svg>
