<?xml version="1.0" encoding="UTF-8"?>
<!-- Generated by Pixelmator Pro 3.6.10 -->
<svg width="24" height="24" viewBox="0 0 24 24" xmlns="http://www.w3.org/2000/svg">
    <g id="enabled">
        <g id="polyline">
            <path id="path4229" fill="#464646" stroke="none" visibility="hidden" d="M -58 18 L -58 24 L -52 24 L -52 18 L -58 18 Z M -54 22 L -56 22 L -56 20 L -54 20 L -54 22 Z"/>
            <path id="path4231" fill="#464646" stroke="none" visibility="hidden" d="M -40 0 L -40 6 L -34 6 L -34 0 L -40 0 Z M -36 4 L -38 4 L -38 2 L -36 2 L -36 4 Z"/>
            <path id="path4233" fill="#464646" stroke="none" visibility="hidden" d="M -52.858002 21.145 L -55.143002 18.855 L -39.143002 2.857002 L -36.858002 5.141998 Z"/>
        </g>
        <g id="edit">
            <path id="path4240" fill="#464646" stroke="none" visibility="hidden" d="M 261 12.156 L 261 12.563 L 261 18.167 C 261 19.825001 259.656006 21.167 258 21.167 L 248 21.167 C 246.345001 21.167 245 19.825001 245 18.167 L 245 8.167 C 245 6.510002 246.345001 5.167 248 5.167 L 254.345001 5.167 L 257.535004 1.997002 L 248 1.997002 C 244.687012 1.997002 242 4.683998 242 7.997002 L 242 17.997002 C 242 21.310001 244.687012 23.997002 248 23.997002 L 258 23.997002 C 261.313995 23.997002 264 21.310001 264 17.997002 L 264 9.188 L 261 12.156"/>
            <path id="path4242" fill="#464646" stroke="none" visibility="hidden" d="M 262.720001 6.637001 L 253.828003 15.528999 L 251 15.528999 L 251 12.700001 L 259.890015 3.809998 Z"/>
            <path id="path4244" fill="#464646" stroke="none" visibility="hidden" d="M 264.713104 4.643311 L 261.885193 1.814388 L 264.714111 -1.013542 L 267.542053 1.815376 Z"/>
        </g>
        <g id="remove">
            <path id="path4247" fill="#464646" stroke="none" visibility="hidden" d="M 305 24 L 323 24 L 323 6 L 305 6 L 305 24 Z M 319 8 L 321 8 L 321 22 L 319 22 L 319 8 Z M 315 8 L 317 8 L 317 22 L 315 22 L 315 8 Z M 311 8 L 313 8 L 313 22 L 311 22 L 311 8 Z M 307 8 L 309 8 L 309 22 L 307 22 L 307 8 Z"/>
            <path id="path4249" fill="#464646" stroke="none" visibility="hidden" d="M 319 2 L 319 -2 L 309 -2 L 309 2 L 303 2 L 303 4 L 325 4 L 325 2 L 319 2 Z M 317 2 L 311 2 L 311 0 L 317 0 L 317 2 Z"/>
        </g>
    </g>
    <g id="disabled">
        <g id="edit-disabled">
            <g id="Gruppe">
                <path id="Pfad" fill="#464646" stroke="none" visibility="hidden" d="M 381 12.156 L 381 12.563 L 381 18.167 C 381 19.825001 379.656006 21.167 378 21.167 L 368 21.167 C 366.345001 21.167 365 19.825001 365 18.167 L 365 8.167 C 365 6.510002 366.345001 5.167 368 5.167 L 374.345001 5.167 L 377.535004 1.997002 L 368 1.997002 C 364.687012 1.997002 362 4.683998 362 7.997002 L 362 17.997002 C 362 21.310001 364.687012 23.997002 368 23.997002 L 378 23.997002 C 381.313995 23.997002 384 21.310001 384 17.997002 L 384 9.188 L 381 12.156"/>
                <path id="path1" fill="#464646" stroke="none" visibility="hidden" d="M 382.720001 6.637001 L 373.828003 15.528999 L 371 15.528999 L 371 12.700001 L 379.890015 3.809998 Z"/>
                <path id="path2" fill="#464646" stroke="none" visibility="hidden" d="M 384.713104 4.643311 L 381.885193 1.814388 L 384.714111 -1.013542 L 387.542053 1.815376 Z"/>
            </g>
        </g>
        <g id="remove-disabled">
            <g id="g1">
                <path id="path3" fill="#464646" stroke="none" visibility="hidden" d="M 425 24 L 443 24 L 443 6 L 425 6 L 425 24 Z M 439 8 L 441 8 L 441 22 L 439 22 L 439 8 Z M 435 8 L 437 8 L 437 22 L 435 22 L 435 8 Z M 431 8 L 433 8 L 433 22 L 431 22 L 431 8 Z M 427 8 L 429 8 L 429 22 L 427 22 L 427 8 Z"/>
                <path id="path4" fill="#464646" stroke="none" visibility="hidden" d="M 439 2 L 439 -2 L 429 -2 L 429 2 L 423 2 L 423 4 L 445 4 L 445 2 L 439 2 Z M 437 2 L 431 2 L 431 0 L 437 0 L 437 2 Z"/>
            </g>
        </g>
    </g>
    <path id="circle-3" fill="none" stroke="#464646" stroke-width="2" visibility="hidden" d="M 505.657227 12 C 505.657227 18.077999 500.731262 23 494.657227 23 C 488.583252 23 483.657227 18.077999 483.657227 12 C 483.657227 5.926003 488.583252 1 494.657227 1 C 500.731262 1 505.657227 5.926003 505.657227 12 Z"/>
    <path id="polygon" fill="#464646" stroke="none" d="M 24 6.565002 L 21.903999 21.395 L 7.07 24 L 0 10.773001 L 10.462997 0 Z"/>
    <path id="rectangle" fill="#464646" stroke="none" visibility="hidden" d="M 64 2 L 84 2 L 84 22 L 64 22 Z"/>
    <path id="circle" fill="#464646" stroke="none" visibility="hidden" d="M 145 12 C 145 18.077999 140.074005 23 134 23 C 127.925995 23 123 18.077999 123 12 C 123 5.926003 127.925995 1 134 1 C 140.074005 1 145 5.926003 145 12 Z"/>
    <path id="marker" fill="#464646" stroke="none" visibility="hidden" d="M 194 1 C 189.028992 1 185 5.028999 185 10 C 185 14.971001 190.001007 22 194 24 C 198.001007 22 203 14.971001 203 10 C 203 5.028999 198.971008 1 194 1 Z M 194 13.5 C 191.515991 13.5 189.5 11.486 189.5 9 C 189.5 6.515999 191.515991 4.5 194 4.5 C 196.484985 4.5 198.5 6.515999 198.5 9 C 198.5 11.486 196.484985 13.5 194 13.5 Z"/>
</svg>
