<?xml version="1.0" encoding="UTF-8"?>
<!-- Generated by Pixelmator Pro 3.6.10 -->
<svg width="20" height="20" viewBox="0 0 20 20" xmlns="http://www.w3.org/2000/svg">
    <g id="enabled">
        <g id="polyline">
            <path id="path4229" fill="#464646" stroke="none" visibility="hidden" d="M -122 16 L -122 22 L -116 22 L -116 16 L -122 16 Z M -118 20 L -120 20 L -120 18 L -118 18 L -118 20 Z"/>
            <path id="path4231" fill="#464646" stroke="none" visibility="hidden" d="M -104 -2 L -104 4 L -98 4 L -98 -2 L -104 -2 Z M -100 2 L -102 2 L -102 0 L -100 0 L -100 2 Z"/>
            <path id="path4233" fill="#464646" stroke="none" visibility="hidden" d="M -116.858002 19.145 L -119.142998 16.855 L -103.143005 0.857002 L -100.858002 3.141998 Z"/>
        </g>
        <g id="edit">
            <path id="path4240" fill="#464646" stroke="none" visibility="hidden" d="M 197 10.156 L 197 10.563 L 197 16.167 C 197 17.825001 195.656006 19.167 194 19.167 L 184 19.167 C 182.345001 19.167 181 17.825001 181 16.167 L 181 6.167 C 181 4.510002 182.345001 3.167 184 3.167 L 190.345001 3.167 L 193.535004 -0.002998 L 184 -0.002998 C 180.687012 -0.002998 178 2.683998 178 5.997002 L 178 15.997002 C 178 19.310001 180.687012 21.997002 184 21.997002 L 194 21.997002 C 197.313995 21.997002 200 19.310001 200 15.997002 L 200 7.188 L 197 10.156"/>
            <path id="path4242" fill="#464646" stroke="none" visibility="hidden" d="M 198.720001 4.637001 L 189.828003 13.528999 L 187 13.528999 L 187 10.700001 L 195.890015 1.809998 Z"/>
            <path id="path4244" fill="#464646" stroke="none" visibility="hidden" d="M 200.713104 2.643311 L 197.885193 -0.185612 L 200.714111 -3.013542 L 203.542053 -0.184624 Z"/>
        </g>
        <g id="remove">
            <path id="path4247" fill="#464646" stroke="none" visibility="hidden" d="M 241 22 L 259 22 L 259 4 L 241 4 L 241 22 Z M 255 6 L 257 6 L 257 20 L 255 20 L 255 6 Z M 251 6 L 253 6 L 253 20 L 251 20 L 251 6 Z M 247 6 L 249 6 L 249 20 L 247 20 L 247 6 Z M 243 6 L 245 6 L 245 20 L 243 20 L 243 6 Z"/>
            <path id="path4249" fill="#464646" stroke="none" visibility="hidden" d="M 255 0 L 255 -4 L 245 -4 L 245 0 L 239 0 L 239 2 L 261 2 L 261 0 L 255 0 Z M 253 0 L 247 0 L 247 -2 L 253 -2 L 253 0 Z"/>
        </g>
    </g>
    <g id="disabled">
        <g id="edit-disabled">
            <g id="Gruppe">
                <path id="Pfad" fill="#464646" stroke="none" visibility="hidden" d="M 317 10.156 L 317 10.563 L 317 16.167 C 317 17.825001 315.656006 19.167 314 19.167 L 304 19.167 C 302.345001 19.167 301 17.825001 301 16.167 L 301 6.167 C 301 4.510002 302.345001 3.167 304 3.167 L 310.345001 3.167 L 313.535004 -0.002998 L 304 -0.002998 C 300.687012 -0.002998 298 2.683998 298 5.997002 L 298 15.997002 C 298 19.310001 300.687012 21.997002 304 21.997002 L 314 21.997002 C 317.313995 21.997002 320 19.310001 320 15.997002 L 320 7.188 L 317 10.156"/>
                <path id="path1" fill="#464646" stroke="none" visibility="hidden" d="M 318.720001 4.637001 L 309.828003 13.528999 L 307 13.528999 L 307 10.700001 L 315.890015 1.809998 Z"/>
                <path id="path2" fill="#464646" stroke="none" visibility="hidden" d="M 320.713104 2.643311 L 317.885193 -0.185612 L 320.714111 -3.013542 L 323.542053 -0.184624 Z"/>
            </g>
        </g>
        <g id="remove-disabled">
            <g id="g1">
                <path id="path3" fill="#464646" stroke="none" visibility="hidden" d="M 361 22 L 379 22 L 379 4 L 361 4 L 361 22 Z M 375 6 L 377 6 L 377 20 L 375 20 L 375 6 Z M 371 6 L 373 6 L 373 20 L 371 20 L 371 6 Z M 367 6 L 369 6 L 369 20 L 367 20 L 367 6 Z M 363 6 L 365 6 L 365 20 L 363 20 L 363 6 Z"/>
                <path id="path4" fill="#464646" stroke="none" visibility="hidden" d="M 375 0 L 375 -4 L 365 -4 L 365 0 L 359 0 L 359 2 L 381 2 L 381 0 L 375 0 Z M 373 0 L 367 0 L 367 -2 L 373 -2 L 373 0 Z"/>
            </g>
        </g>
    </g>
    <path id="circle-3" fill="none" stroke="#464646" stroke-width="2" visibility="hidden" d="M 441.657227 10 C 441.657227 16.077999 436.731262 21 430.657227 21 C 424.583252 21 419.657227 16.077999 419.657227 10 C 419.657227 3.926003 424.583252 -1 430.657227 -1 C 436.731262 -1 441.657227 3.926003 441.657227 10 Z"/>
    <path id="polygon" fill="#464646" stroke="none" visibility="hidden" d="M -40 4.565002 L -42.096001 19.395 L -56.93 22 L -64 8.773001 L -53.537003 -2 Z"/>
    <path id="rectangle" fill="#464646" stroke="none" d="M 0 0 L 20 0 L 20 20 L 0 20 Z"/>
    <path id="circle" fill="#464646" stroke="none" visibility="hidden" d="M 81 10 C 81 16.077999 76.074005 21 70 21 C 63.925995 21 59 16.077999 59 10 C 59 3.926003 63.925995 -1 70 -1 C 76.074005 -1 81 3.926003 81 10 Z"/>
    <path id="marker" fill="#464646" stroke="none" visibility="hidden" d="M 130 -1 C 125.028992 -1 121 3.028999 121 8 C 121 12.971001 126.001007 20 130 22 C 134.001007 20 139 12.971001 139 8 C 139 3.028999 134.971008 -1 130 -1 Z M 130 11.5 C 127.515991 11.5 125.5 9.486 125.5 7 C 125.5 4.515999 127.515991 2.5 130 2.5 C 132.484985 2.5 134.5 4.515999 134.5 7 C 134.5 9.486 132.484985 11.5 130 11.5 Z"/>
</svg>
